<?xml version="1.0" encoding="UTF-8"?>
<svg width="256" height="256" version="1.1" viewBox="0 0 67.733 67.733" xmlns="http://www.w3.org/2000/svg"
   xmlns:cc="http://creativecommons.org/ns#" xmlns:dc="http://purl.org/dc/elements/1.1/"
   xmlns:rdf="http://www.w3.org/1999/02/22-rdf-syntax-ns#">
   <title>Raspberries</title>
   <metadata>
      <rdf:RDF>
         <cc:Work rdf:about="">
            <dc:format>image/svg+xml</dc:format>
            <dc:type rdf:resource="http://purl.org/dc/dcmitype/StillImage" />
            <dc:title>Raspberries</dc:title>
            <cc:license rdf:resource="http://creativecommons.org/publicdomain/zero/1.0/" />
            <dc:date />
            <dc:creator>
               <cc:Agent>
                  <dc:title>www.inkscapeforum.it</dc:title>
               </cc:Agent>
            </dc:creator>
            <dc:language />
            <dc:description />
            <dc:source>https://openclipart.org/detail/280304</dc:source>
         </cc:Work>
         <cc:License rdf:about="http://creativecommons.org/publicdomain/zero/1.0/">
            <cc:permits rdf:resource="http://creativecommons.org/ns#Reproduction" />
            <cc:permits rdf:resource="http://creativecommons.org/ns#Distribution" />
            <cc:permits rdf:resource="http://creativecommons.org/ns#DerivativeWorks" />
         </cc:License>
      </rdf:RDF>
   </metadata>
   <g transform="matrix(2.3648 0 0 2.3648 -3.6942 -634.12)">
      <g transform="matrix(.22636 .28756 -.28756 .22636 77.594 193)">
         <path
            d="m51.285 289.32c0-14.697 11.982-15.967 22.87-15.967 10.889 0 16.561 1.2698 16.561 15.967s-8.8271 26.611-19.716 26.611c-10.889 0-19.716-11.914-19.716-26.611z"
            fill="#f6445b" fill-rule="evenodd" stroke="#b50000" stroke-width=".26458"
            style="paint-order:markers fill stroke" />
         <g fill="#f6445b" fill-rule="evenodd" stroke="#b50000" stroke-width=".52917">
            <path
               d="m78.699 281.18c-1.0193-3.1368 0.76952-4.078 2.4752-4.6871 1.7057-0.60912 2.6823-0.65536 3.7016 2.4813 1.0193 3.1368 0.46285 6.1734-1.2428 6.7826-1.7057 0.6091-3.9147-1.44-4.934-4.5768z"
               style="paint-order:markers fill stroke" />
            <path
               d="m51.597 288.06c0.41567-2.5675 2.4293-2.4692 4.2267-2.1782 1.7974 0.29098 2.6978 0.6644 2.2821 3.2319-0.41567 2.5676-2.2097 4.4131-4.007 4.1221-1.7973-0.29099-2.9174-2.6083-2.5017-5.1758z"
               style="paint-order:markers fill stroke" />
            <path
               d="m51.597 288.06c0.41567-2.5675 2.4293-2.4692 4.2267-2.1782 1.7974 0.29098 2.6978 0.6644 2.2821 3.2319-0.41567 2.5676-2.2097 4.4131-4.007 4.1221-1.7973-0.29099-2.9174-2.6083-2.5017-5.1758z"
               style="paint-order:markers fill stroke" />
            <path
               d="m53.889 280.04c0.41567-2.5675 2.4293-2.4692 4.2267-2.1782 1.7974 0.29098 2.6978 0.6644 2.2821 3.2319-0.41567 2.5676-2.2097 4.4131-4.007 4.1221-1.7973-0.29099-2.9174-2.6083-2.5017-5.1758z"
               style="paint-order:markers fill stroke" />
            <path
               d="m52.504 282.63c0.41567-2.5675 2.4293-2.4692 4.2267-2.1782 1.7974 0.29098 2.6978 0.6644 2.2821 3.2319-0.41567 2.5676-2.2097 4.4131-4.007 4.1221-1.7973-0.29099-2.9174-2.6083-2.5017-5.1758z"
               style="paint-order:markers fill stroke" />
            <path
               d="m55.619 278.48c0.41567-2.5675 2.4293-2.4692 4.2267-2.1782 1.7974 0.29098 2.6978 0.6644 2.2821 3.2319-0.41567 2.5676-2.2097 4.4131-4.007 4.1221-1.7973-0.29099-2.9174-2.6083-2.5017-5.1758z"
               style="paint-order:markers fill stroke" />
            <path
               d="m52.209 293.81c0.41567-2.5675 2.4293-2.4692 4.2267-2.1782 1.7974 0.29098 2.6978 0.6644 2.2821 3.2319-0.41567 2.5676-2.2097 4.4131-4.007 4.1221-1.7973-0.29099-2.9174-2.6083-2.5017-5.1758z"
               style="paint-order:markers fill stroke" />
            <path
               d="m54.534 299.8c0.41567-2.5675 2.4293-2.4692 4.2267-2.1782 1.7974 0.29098 2.6978 0.6644 2.2821 3.2319-0.41567 2.5676-2.2097 4.4131-4.007 4.1221-1.7973-0.29099-2.9174-2.6083-2.5017-5.1758z"
               style="paint-order:markers fill stroke" />
            <path
               d="m72.151 285.2c-0.15106-3.2948 1.8233-3.728 3.6294-3.8631 1.8061-0.13504 2.7601 0.0793 2.9112 3.374 0.15106 3.2948-1.1906 6.0752-2.9968 6.2102-1.8061 0.13503-3.3928-2.4264-3.5438-5.7212z"
               style="paint-order:markers fill stroke" />
            <path
               d="m77.78 286.79c-0.15106-3.2948 1.8233-3.728 3.6294-3.8631 1.8061-0.13504 2.7601 0.0793 2.9112 3.374 0.15106 3.2948-1.1906 6.0752-2.9968 6.2102-1.8061 0.13503-3.3928-2.4264-3.5438-5.7212z"
               style="paint-order:markers fill stroke" />
            <path
               d="m84.51 292.17c-0.15106-3.2948 1.8233-3.728 3.6294-3.8631 1.8061-0.13504 2.7601 0.0793 2.9112 3.374 0.15106 3.2948-1.1906 6.0752-2.9968 6.2102-1.8061 0.13503-3.3928-2.4264-3.5438-5.7212z"
               style="paint-order:markers fill stroke" />
            <path
               d="m83.898 287.52c-0.15106-3.2948 1.8233-3.728 3.6294-3.8631 1.8061-0.13504 2.7601 0.0793 2.9112 3.374 0.15106 3.2948-1.1906 6.0752-2.9968 6.2102-1.8061 0.13503-3.3928-2.4264-3.5438-5.7212z"
               style="paint-order:markers fill stroke" />
            <path
               d="m82.675 298.78c-0.15106-3.2948 1.8233-3.728 3.6294-3.8631 1.8061-0.13504 2.7601 0.0793 2.9112 3.374 0.15106 3.2948-1.1906 6.0752-2.9968 6.2102-1.8061 0.13503-3.3928-2.4264-3.5438-5.7212z"
               style="paint-order:markers fill stroke" />
            <path
               d="m67.959 285.22c0-2.8624 2.2049-3.1097 4.2087-3.1097 2.0038 0 3.0477 0.2473 3.0477 3.1097 0 2.8624-1.6244 5.1829-3.6282 5.1829-2.0038 0-3.6282-2.3204-3.6282-5.1829z"
               style="paint-order:markers fill stroke" />
            <path
               d="m54.876 298.67c-0.15202-2.5965 1.8349-2.938 3.6525-3.0444 1.8176-0.10642 2.7777 0.0625 2.9297 2.659 0.15202 2.5965-1.1982 4.7877-3.0159 4.8941-1.8176 0.10641-3.4144-1.9122-3.5664-4.5088z"
               style="paint-order:markers fill stroke" />
            <path
               d="m54.876 298.67c-0.15202-2.5965 1.8349-2.938 3.6525-3.0444 1.8176-0.10642 2.7777 0.0625 2.9297 2.659 0.15202 2.5965-1.1982 4.7877-3.0159 4.8941-1.8176 0.10641-3.4144-1.9122-3.5664-4.5088z"
               style="paint-order:markers fill stroke" />
            <path
               d="m57.347 306.42c-0.77646-2.4824 1.0686-3.2949 2.8063-3.8385 1.7377-0.54354 2.7101-0.61223 3.4865 1.8701 0.77646 2.4824-0.0028 4.9354-1.7405 5.4789-1.7377 0.54353-3.7759-1.0282-4.5523-3.5106z"
               style="paint-order:markers fill stroke" />
            <path
               d="m57.347 306.42c-0.77646-2.4824 1.0686-3.2949 2.8063-3.8385 1.7377-0.54354 2.7101-0.61223 3.4865 1.8701 0.77646 2.4824-0.0028 4.9354-1.7405 5.4789-1.7377 0.54353-3.7759-1.0282-4.5523-3.5106z"
               style="paint-order:markers fill stroke" />
            <path
               d="m57.568 300.63c-0.15202-2.5965 1.8349-2.938 3.6525-3.0444 1.8176-0.10642 2.7777 0.0625 2.9297 2.659 0.15202 2.5965-1.1982 4.7877-3.0159 4.8941-1.8176 0.10641-3.4144-1.9122-3.5664-4.5088z"
               style="paint-order:markers fill stroke" />
            <path
               d="m61.385 310.09c-0.77646-2.4824 1.0686-3.2949 2.8063-3.8385 1.7377-0.54354 2.7101-0.61223 3.4865 1.8701 0.77646 2.4824-0.0028 4.9354-1.7405 5.4789-1.7377 0.54353-3.7759-1.0282-4.5523-3.5106z"
               style="paint-order:markers fill stroke" />
            <path
               d="m55.758 292.46c0.41567-2.5675 2.4293-2.4692 4.2267-2.1782 1.7974 0.29098 2.6978 0.6644 2.2821 3.2319-0.41567 2.5676-2.2097 4.4131-4.007 4.1221-1.7973-0.29099-2.9174-2.6083-2.5017-5.1758z"
               style="paint-order:markers fill stroke" />
            <path
               d="m59.796 297.23c0.41567-2.5675 2.4293-2.4692 4.2267-2.1782 1.7974 0.29098 2.6978 0.6644 2.2821 3.2319-0.41567 2.5676-2.2097 4.4131-4.007 4.1221-1.7973-0.29099-2.9174-2.6083-2.5017-5.1758z"
               style="paint-order:markers fill stroke" />
            <path
               d="m69.454 311.15c-0.17954-2.5867 2.1671-2.9268 4.3137-3.0328 2.1467-0.10601 3.2805 0.0623 3.46 2.6489 0.17954 2.5867-1.4151 4.7695-3.5618 4.8756-2.1467 0.10601-4.0324-1.905-4.2119-4.4916z"
               style="paint-order:markers fill stroke" />
            <path
               d="m78.019 305.28c-0.17954-2.5867 2.1671-2.9268 4.3137-3.0328 2.1467-0.10601 3.2805 0.0623 3.46 2.6489 0.17954 2.5867-1.4151 4.7695-3.5618 4.8756-2.1467 0.10601-4.0324-1.905-4.2119-4.4916z"
               style="paint-order:markers fill stroke" />
            <path
               d="m80.084 299.04c-0.15202-2.5965 1.8349-2.938 3.6525-3.0444 1.8176-0.10642 2.7777 0.0625 2.9297 2.659 0.15202 2.5965-1.1982 4.7877-3.0159 4.8941-1.8176 0.10641-3.4143-1.9122-3.5664-4.5088z"
               style="paint-order:markers fill stroke" />
            <path
               d="m79.615 290.7c-0.15106-3.2948 1.8233-3.728 3.6294-3.8631 1.8061-0.13504 2.7601 0.0793 2.9112 3.374 0.15106 3.2948-1.1906 6.0752-2.9968 6.2102-1.8061 0.13503-3.3928-2.4264-3.5438-5.7212z"
               style="paint-order:markers fill stroke" />
            <path
               d="m73.736 309.07c-0.17954-2.5867 2.1671-2.9268 4.3137-3.0328 2.1467-0.10601 3.2805 0.0623 3.46 2.6489 0.17954 2.5867-1.4151 4.7695-3.5618 4.8756-2.1467 0.10601-4.0324-1.905-4.2119-4.4916z"
               style="paint-order:markers fill stroke" />
            <path
               d="m76.306 307.48c-0.17954-2.5867 2.1671-2.9268 4.3137-3.0328 2.1467-0.10601 3.2805 0.0623 3.46 2.6489 0.17954 2.5867-1.4151 4.7695-3.5618 4.8756-2.1467 0.10601-4.0324-1.905-4.2119-4.4916z"
               style="paint-order:markers fill stroke" />
            <path
               d="m65.032 310.66c-0.15202-2.5965 1.8349-2.938 3.6525-3.0444 1.8176-0.10642 2.7777 0.0625 2.9297 2.659 0.15202 2.5965-1.1982 4.7877-3.0159 4.8941-1.8176 0.10641-3.4144-1.9122-3.5664-4.5088z"
               style="paint-order:markers fill stroke" />
            <path
               d="m71.044 307.48c-0.17954-2.5867 2.1671-2.9268 4.3137-3.0328 2.1467-0.10601 3.2805 0.0623 3.46 2.6489 0.17954 2.5867-1.4151 4.7695-3.5618 4.8756-2.1467 0.10601-4.0324-1.905-4.2119-4.4916z"
               style="paint-order:markers fill stroke" />
            <path
               d="m68.336 304.42c-0.15202-2.5965 1.8349-2.938 3.6525-3.0444 1.8176-0.10642 2.7777 0.0625 2.9297 2.659 0.15202 2.5965-1.1982 4.7877-3.0159 4.8941-1.8176 0.10641-3.4144-1.9122-3.5664-4.5088z"
               style="paint-order:markers fill stroke" />
            <path
               d="m73.859 303.08c-0.17954-2.5867 2.1671-2.9268 4.3137-3.0328 2.1467-0.10601 3.2805 0.0623 3.46 2.6489 0.17954 2.5867-1.4151 4.7695-3.5618 4.8756-2.1467 0.10601-4.0324-1.905-4.2119-4.4916z"
               style="paint-order:markers fill stroke" />
            <path
               d="m69.315 297.94c-0.15202-2.5965 1.8349-2.938 3.6525-3.0444 1.8176-0.10642 2.7777 0.0625 2.9297 2.659 0.15202 2.5965-1.1982 4.7877-3.0159 4.8941-1.8176 0.10641-3.4144-1.9122-3.5664-4.5088z"
               style="paint-order:markers fill stroke" />
            <path
               d="m74.104 297.2c-0.17954-2.5867 2.1671-2.9268 4.3137-3.0328 2.1467-0.10601 3.2805 0.0623 3.46 2.6489 0.17954 2.5867-1.4151 4.7695-3.5618 4.8756-2.1467 0.10601-4.0324-1.905-4.2119-4.4916z"
               style="paint-order:markers fill stroke" />
            <path
               d="m74.088 291.33c-0.15202-2.5965 1.8349-2.938 3.6525-3.0444 1.8176-0.10642 2.7777 0.0625 2.9297 2.659 0.15202 2.5965-1.1982 4.7877-3.0159 4.8941-1.8176 0.10641-3.4144-1.9122-3.5664-4.5088z"
               style="paint-order:markers fill stroke" />
            <path
               d="m63.712 303.35c0.41567-2.5675 2.4293-2.4692 4.2267-2.1782 1.7974 0.29098 2.6978 0.6644 2.2821 3.2319-0.41567 2.5676-2.2097 4.4131-4.007 4.1221-1.7973-0.29099-2.9174-2.6083-2.5017-5.1758z"
               style="paint-order:markers fill stroke" />
            <path
               d="m64.691 299.44c0.41567-2.5675 2.4293-2.4692 4.2267-2.1782 1.7974 0.29098 2.6978 0.6644 2.2821 3.2319-0.41567 2.5676-2.2097 4.4131-4.007 4.1221-1.7973-0.29099-2.9174-2.6083-2.5017-5.1758z"
               style="paint-order:markers fill stroke" />
            <path
               d="m56.247 287.81c0.41567-2.5675 2.4293-2.4692 4.2267-2.1782 1.7974 0.29098 2.6978 0.6644 2.2821 3.2319-0.41567 2.5676-2.2097 4.4131-4.007 4.1221-1.7973-0.29099-2.9174-2.6083-2.5017-5.1758z"
               style="paint-order:markers fill stroke" />
            <path
               d="m62.855 288.18c0.41567-2.5675 2.4293-2.4692 4.2267-2.1782 1.7974 0.29098 2.6978 0.6644 2.2821 3.2319-0.41567 2.5676-2.2097 4.4131-4.007 4.1221-1.7973-0.29099-2.9174-2.6083-2.5017-5.1758z"
               style="paint-order:markers fill stroke" />
            <path
               d="m60.897 285.36c0.41567-2.5675 2.4293-2.4692 4.2267-2.1782 1.7974 0.29098 2.6978 0.6644 2.2821 3.2319-0.41567 2.5676-2.2097 4.4131-4.007 4.1221-1.7973-0.29099-2.9174-2.6083-2.5017-5.1758z"
               style="paint-order:markers fill stroke" />
            <path
               d="m64.026 294.83c0-2.601 2.0035-2.8257 3.8242-2.8257 1.8208 0 2.7693 0.22472 2.7693 2.8257 0 2.601-1.476 4.7095-3.2968 4.7095-1.8207 0-3.2968-2.1085-3.2968-4.7095z"
               style="paint-order:markers fill stroke" />
            <path
               d="m60.52 290.15c1.1717-2.3221 3.0616-1.6201 4.6872-0.79987 1.6255 0.82026 2.3711 1.4482 1.1994 3.7703-1.1718 2.3221-3.4394 3.5396-5.0649 2.7193-1.6255-0.82026-1.9934-3.3676-0.82162-5.6897z"
               style="paint-order:markers fill stroke" />
            <path
               d="m68.186 292.39c0-2.601 2.0035-2.8257 3.8242-2.8257 1.8208 0 2.7693 0.22472 2.7693 2.8257 0 2.601-1.476 4.7095-3.2968 4.7095-1.8207 0-3.2968-2.1085-3.2968-4.7095z"
               style="paint-order:markers fill stroke" />
         </g>
         <g transform="translate(-.24474 .48948)">
            <path
               d="m57.921 272.88c-0.35762 0.84597 1.47 1.7594 3.3455 2.6743-7.47 0.82588-2.262 8.2976-4.0356 11.751 4.7984-3.3466 12.124-5.844 19.526-5.886 5.8047 4.9699 5.9092 1.3137 13.728 7.4023 0.31673-2.3162 1.1045-5.0623-1.0773-8.7257-3.4655-1.9453-7.8652 0.17776-12.036 1.22 2.8327-2.3952 2.9031-7.7881 12.672-5.9751-1.9352-2.0589-3.3774-3.6105-6.9972-3.4228-2.305 0.11949-5.6186 2.8727-8.5781 4.2887l5.4029-4.4855c-0.71704-2.3871-1.4153-3.0489-4.817-2.5973-2.7034 1.4325-6.5612 0.64442-7.2225 3.9396-3.7124-3.9736-5.1627-1.9754-9.9111-0.18355z"
               fill="#90b556" />
            <path
               d="m77.338 270.92c-3.0443 1.0229-8.3305 0.80297-7.4672 5.6905-1.5182 0.5479-4.389-5.7934-7.5563-2.7256 8.3904 2.7145 5.1477 3.4313-1.5352 4.498-1.6864 1.531-0.83106 7.5499 1.8496 4.6191 2.1109-0.58443 5.0999-3.059 6.6914-1.3281 2.1936-3.7228 8.7523-0.0852 9.9746-5.166 1.7767-2.2091-2.7975 2.0056-4.0611 1.683-8.7733 3.6124 0.93218-5.5468 2.6256-7.2534l-0.23242-0.0195zm9.6113 10.021c-3.8656 0.25395-5.3043 1.3859-1 1.9707 1.9798 0.45883 5.3426 3.3681 3.4922-0.61914-0.12932-1.445-1.419-1.3523-2.4922-1.3516z"
               fill="#009100" stroke="#009100" stroke-width=".26458px" />
            <path
               d="m66.307 252.85c0.33201 3.3029 1.0415-0.99936 1.4227 1.4706 2.5774 16.702 5.6214 22.896 5.6214 22.896l-4.6388 1.695 0.17181-0.42375z"
               fill="#009100" />
         </g>
      </g>
      <path
         d="m13.456 284.37c0-6.1016 4.9786-6.4334 9.495-6.6288 3.6291-0.15703 4.5058 0.0826 6.8757 6.6288 1.7041 4.7072-3.7056 11-8.1853 11.048-4.5204 0.0481-8.1853-4.9464-8.1853-11.048z"
         fill="#f6445b" fill-rule="evenodd" stroke="#b50000" stroke-width=".10985"
         style="paint-order:markers fill stroke" />
      <g transform="matrix(.41517 0 0 .41517 -8.1415 164.43)" fill="#f6445b" fill-rule="evenodd" stroke="#b50000"
         stroke-width=".52917">
         <path
            d="m78.699 281.18c-1.0193-3.1368 0.76952-4.078 2.4752-4.6871 1.7057-0.60912 2.6823-0.65536 3.7016 2.4813 1.0193 3.1368 0.46285 6.1734-1.2428 6.7826-1.7057 0.6091-3.9147-1.44-4.934-4.5768z"
            style="paint-order:markers fill stroke" />
         <path
            d="m51.597 288.06c0.41567-2.5675 2.4293-2.4692 4.2267-2.1782 1.7974 0.29098 2.6978 0.6644 2.2821 3.2319-0.41567 2.5676-2.2097 4.4131-4.007 4.1221-1.7973-0.29099-2.9174-2.6083-2.5017-5.1758z"
            style="paint-order:markers fill stroke" />
         <path
            d="m51.597 288.06c0.41567-2.5675 2.4293-2.4692 4.2267-2.1782 1.7974 0.29098 2.6978 0.6644 2.2821 3.2319-0.41567 2.5676-2.2097 4.4131-4.007 4.1221-1.7973-0.29099-2.9174-2.6083-2.5017-5.1758z"
            style="paint-order:markers fill stroke" />
         <path
            d="m53.889 280.04c0.41567-2.5675 2.4293-2.4692 4.2267-2.1782 1.7974 0.29098 2.6978 0.6644 2.2821 3.2319-0.41567 2.5676-2.2097 4.4131-4.007 4.1221-1.7973-0.29099-2.9174-2.6083-2.5017-5.1758z"
            style="paint-order:markers fill stroke" />
         <path
            d="m52.504 282.63c0.41567-2.5675 2.4293-2.4692 4.2267-2.1782 1.7974 0.29098 2.6978 0.6644 2.2821 3.2319-0.41567 2.5676-2.2097 4.4131-4.007 4.1221-1.7973-0.29099-2.9174-2.6083-2.5017-5.1758z"
            style="paint-order:markers fill stroke" />
         <path
            d="m55.619 278.48c0.41567-2.5675 2.4293-2.4692 4.2267-2.1782 1.7974 0.29098 2.6978 0.6644 2.2821 3.2319-0.41567 2.5676-2.2097 4.4131-4.007 4.1221-1.7973-0.29099-2.9174-2.6083-2.5017-5.1758z"
            style="paint-order:markers fill stroke" />
         <path
            d="m52.209 293.81c0.41567-2.5675 2.4293-2.4692 4.2267-2.1782 1.7974 0.29098 2.6978 0.6644 2.2821 3.2319-0.41567 2.5676-2.2097 4.4131-4.007 4.1221-1.7973-0.29099-2.9174-2.6083-2.5017-5.1758z"
            style="paint-order:markers fill stroke" />
         <path
            d="m54.534 299.8c0.41567-2.5675 2.4293-2.4692 4.2267-2.1782 1.7974 0.29098 2.6978 0.6644 2.2821 3.2319-0.41567 2.5676-2.2097 4.4131-4.007 4.1221-1.7973-0.29099-2.9174-2.6083-2.5017-5.1758z"
            style="paint-order:markers fill stroke" />
         <path
            d="m72.151 285.2c-0.15106-3.2948 1.8233-3.728 3.6294-3.8631 1.8061-0.13504 2.7601 0.0793 2.9112 3.374 0.15106 3.2948-1.1906 6.0752-2.9968 6.2102-1.8061 0.13503-3.3928-2.4264-3.5438-5.7212z"
            style="paint-order:markers fill stroke" />
         <path
            d="m77.78 286.79c-0.15106-3.2948 1.8233-3.728 3.6294-3.8631 1.8061-0.13504 2.7601 0.0793 2.9112 3.374 0.15106 3.2948-1.1906 6.0752-2.9968 6.2102-1.8061 0.13503-3.3928-2.4264-3.5438-5.7212z"
            style="paint-order:markers fill stroke" />
         <path
            d="m84.51 292.17c-0.15106-3.2948 1.8233-3.728 3.6294-3.8631 1.8061-0.13504 2.7601 0.0793 2.9112 3.374 0.15106 3.2948-1.1906 6.0752-2.9968 6.2102-1.8061 0.13503-3.3928-2.4264-3.5438-5.7212z"
            style="paint-order:markers fill stroke" />
         <path
            d="m83.898 287.52c-0.15106-3.2948 1.8233-3.728 3.6294-3.8631 1.8061-0.13504 2.7601 0.0793 2.9112 3.374 0.15106 3.2948-1.1906 6.0752-2.9968 6.2102-1.8061 0.13503-3.3928-2.4264-3.5438-5.7212z"
            style="paint-order:markers fill stroke" />
         <path
            d="m82.675 298.78c-0.15106-3.2948 1.8233-3.728 3.6294-3.8631 1.8061-0.13504 2.7601 0.0793 2.9112 3.374 0.15106 3.2948-1.1906 6.0752-2.9968 6.2102-1.8061 0.13503-3.3928-2.4264-3.5438-5.7212z"
            style="paint-order:markers fill stroke" />
         <path
            d="m67.959 285.22c0-2.8624 2.2049-3.1097 4.2087-3.1097 2.0038 0 3.0477 0.2473 3.0477 3.1097 0 2.8624-1.6244 5.1829-3.6282 5.1829-2.0038 0-3.6282-2.3204-3.6282-5.1829z"
            style="paint-order:markers fill stroke" />
         <path
            d="m54.876 298.67c-0.15202-2.5965 1.8349-2.938 3.6525-3.0444 1.8176-0.10642 2.7777 0.0625 2.9297 2.659 0.15202 2.5965-1.1982 4.7877-3.0159 4.8941-1.8176 0.10641-3.4144-1.9122-3.5664-4.5088z"
            style="paint-order:markers fill stroke" />
         <path
            d="m54.876 298.67c-0.15202-2.5965 1.8349-2.938 3.6525-3.0444 1.8176-0.10642 2.7777 0.0625 2.9297 2.659 0.15202 2.5965-1.1982 4.7877-3.0159 4.8941-1.8176 0.10641-3.4144-1.9122-3.5664-4.5088z"
            style="paint-order:markers fill stroke" />
         <path
            d="m57.347 306.42c-0.77646-2.4824 1.0686-3.2949 2.8063-3.8385 1.7377-0.54354 2.7101-0.61223 3.4865 1.8701 0.77646 2.4824-0.0028 4.9354-1.7405 5.4789-1.7377 0.54353-3.7759-1.0282-4.5523-3.5106z"
            style="paint-order:markers fill stroke" />
         <path
            d="m57.347 306.42c-0.77646-2.4824 1.0686-3.2949 2.8063-3.8385 1.7377-0.54354 2.7101-0.61223 3.4865 1.8701 0.77646 2.4824-0.0028 4.9354-1.7405 5.4789-1.7377 0.54353-3.7759-1.0282-4.5523-3.5106z"
            style="paint-order:markers fill stroke" />
         <path
            d="m57.568 300.63c-0.15202-2.5965 1.8349-2.938 3.6525-3.0444 1.8176-0.10642 2.7777 0.0625 2.9297 2.659 0.15202 2.5965-1.1982 4.7877-3.0159 4.8941-1.8176 0.10641-3.4144-1.9122-3.5664-4.5088z"
            style="paint-order:markers fill stroke" />
         <path
            d="m61.385 310.09c-0.77646-2.4824 1.0686-3.2949 2.8063-3.8385 1.7377-0.54354 2.7101-0.61223 3.4865 1.8701 0.77646 2.4824-0.0028 4.9354-1.7405 5.4789-1.7377 0.54353-3.7759-1.0282-4.5523-3.5106z"
            style="paint-order:markers fill stroke" />
         <path
            d="m55.758 292.46c0.41567-2.5675 2.4293-2.4692 4.2267-2.1782 1.7974 0.29098 2.6978 0.6644 2.2821 3.2319-0.41567 2.5676-2.2097 4.4131-4.007 4.1221-1.7973-0.29099-2.9174-2.6083-2.5017-5.1758z"
            style="paint-order:markers fill stroke" />
         <path
            d="m59.796 297.23c0.41567-2.5675 2.4293-2.4692 4.2267-2.1782 1.7974 0.29098 2.6978 0.6644 2.2821 3.2319-0.41567 2.5676-2.2097 4.4131-4.007 4.1221-1.7973-0.29099-2.9174-2.6083-2.5017-5.1758z"
            style="paint-order:markers fill stroke" />
         <path
            d="m69.454 311.15c-0.17954-2.5867 2.1671-2.9268 4.3137-3.0328 2.1467-0.10601 3.2805 0.0623 3.46 2.6489 0.17954 2.5867-1.4151 4.7695-3.5618 4.8756-2.1467 0.10601-4.0324-1.905-4.2119-4.4916z"
            style="paint-order:markers fill stroke" />
         <path
            d="m78.019 305.28c-0.17954-2.5867 2.1671-2.9268 4.3137-3.0328 2.1467-0.10601 3.2805 0.0623 3.46 2.6489 0.17954 2.5867-1.4151 4.7695-3.5618 4.8756-2.1467 0.10601-4.0324-1.905-4.2119-4.4916z"
            style="paint-order:markers fill stroke" />
         <path
            d="m80.084 299.04c-0.15202-2.5965 1.8349-2.938 3.6525-3.0444 1.8176-0.10642 2.7777 0.0625 2.9297 2.659 0.15202 2.5965-1.1982 4.7877-3.0159 4.8941-1.8176 0.10641-3.4143-1.9122-3.5664-4.5088z"
            style="paint-order:markers fill stroke" />
         <path
            d="m79.615 290.7c-0.15106-3.2948 1.8233-3.728 3.6294-3.8631 1.8061-0.13504 2.7601 0.0793 2.9112 3.374 0.15106 3.2948-1.1906 6.0752-2.9968 6.2102-1.8061 0.13503-3.3928-2.4264-3.5438-5.7212z"
            style="paint-order:markers fill stroke" />
         <path
            d="m73.736 309.07c-0.17954-2.5867 2.1671-2.9268 4.3137-3.0328 2.1467-0.10601 3.2805 0.0623 3.46 2.6489 0.17954 2.5867-1.4151 4.7695-3.5618 4.8756-2.1467 0.10601-4.0324-1.905-4.2119-4.4916z"
            style="paint-order:markers fill stroke" />
         <path
            d="m76.306 307.48c-0.17954-2.5867 2.1671-2.9268 4.3137-3.0328 2.1467-0.10601 3.2805 0.0623 3.46 2.6489 0.17954 2.5867-1.4151 4.7695-3.5618 4.8756-2.1467 0.10601-4.0324-1.905-4.2119-4.4916z"
            style="paint-order:markers fill stroke" />
         <path
            d="m65.032 310.66c-0.15202-2.5965 1.8349-2.938 3.6525-3.0444 1.8176-0.10642 2.7777 0.0625 2.9297 2.659 0.15202 2.5965-1.1982 4.7877-3.0159 4.8941-1.8176 0.10641-3.4144-1.9122-3.5664-4.5088z"
            style="paint-order:markers fill stroke" />
         <path
            d="m71.044 307.48c-0.17954-2.5867 2.1671-2.9268 4.3137-3.0328 2.1467-0.10601 3.2805 0.0623 3.46 2.6489 0.17954 2.5867-1.4151 4.7695-3.5618 4.8756-2.1467 0.10601-4.0324-1.905-4.2119-4.4916z"
            style="paint-order:markers fill stroke" />
         <path
            d="m68.336 304.42c-0.15202-2.5965 1.8349-2.938 3.6525-3.0444 1.8176-0.10642 2.7777 0.0625 2.9297 2.659 0.15202 2.5965-1.1982 4.7877-3.0159 4.8941-1.8176 0.10641-3.4144-1.9122-3.5664-4.5088z"
            style="paint-order:markers fill stroke" />
         <path
            d="m73.859 303.08c-0.17954-2.5867 2.1671-2.9268 4.3137-3.0328 2.1467-0.10601 3.2805 0.0623 3.46 2.6489 0.17954 2.5867-1.4151 4.7695-3.5618 4.8756-2.1467 0.10601-4.0324-1.905-4.2119-4.4916z"
            style="paint-order:markers fill stroke" />
         <path
            d="m69.315 297.94c-0.15202-2.5965 1.8349-2.938 3.6525-3.0444 1.8176-0.10642 2.7777 0.0625 2.9297 2.659 0.15202 2.5965-1.1982 4.7877-3.0159 4.8941-1.8176 0.10641-3.4144-1.9122-3.5664-4.5088z"
            style="paint-order:markers fill stroke" />
         <path
            d="m74.104 297.2c-0.17954-2.5867 2.1671-2.9268 4.3137-3.0328 2.1467-0.10601 3.2805 0.0623 3.46 2.6489 0.17954 2.5867-1.4151 4.7695-3.5618 4.8756-2.1467 0.10601-4.0324-1.905-4.2119-4.4916z"
            style="paint-order:markers fill stroke" />
         <path
            d="m74.088 291.33c-0.15202-2.5965 1.8349-2.938 3.6525-3.0444 1.8176-0.10642 2.7777 0.0625 2.9297 2.659 0.15202 2.5965-1.1982 4.7877-3.0159 4.8941-1.8176 0.10641-3.4144-1.9122-3.5664-4.5088z"
            style="paint-order:markers fill stroke" />
         <path
            d="m63.712 303.35c0.41567-2.5675 2.4293-2.4692 4.2267-2.1782 1.7974 0.29098 2.6978 0.6644 2.2821 3.2319-0.41567 2.5676-2.2097 4.4131-4.007 4.1221-1.7973-0.29099-2.9174-2.6083-2.5017-5.1758z"
            style="paint-order:markers fill stroke" />
         <path
            d="m64.691 299.44c0.41567-2.5675 2.4293-2.4692 4.2267-2.1782 1.7974 0.29098 2.6978 0.6644 2.2821 3.2319-0.41567 2.5676-2.2097 4.4131-4.007 4.1221-1.7973-0.29099-2.9174-2.6083-2.5017-5.1758z"
            style="paint-order:markers fill stroke" />
         <path
            d="m56.247 287.81c0.41567-2.5675 2.4293-2.4692 4.2267-2.1782 1.7974 0.29098 2.6978 0.6644 2.2821 3.2319-0.41567 2.5676-2.2097 4.4131-4.007 4.1221-1.7973-0.29099-2.9174-2.6083-2.5017-5.1758z"
            style="paint-order:markers fill stroke" />
         <path
            d="m62.855 288.18c0.41567-2.5675 2.4293-2.4692 4.2267-2.1782 1.7974 0.29098 2.6978 0.6644 2.2821 3.2319-0.41567 2.5676-2.2097 4.4131-4.007 4.1221-1.7973-0.29099-2.9174-2.6083-2.5017-5.1758z"
            style="paint-order:markers fill stroke" />
         <path
            d="m60.897 285.36c0.41567-2.5675 2.4293-2.4692 4.2267-2.1782 1.7974 0.29098 2.6978 0.6644 2.2821 3.2319-0.41567 2.5676-2.2097 4.4131-4.007 4.1221-1.7973-0.29099-2.9174-2.6083-2.5017-5.1758z"
            style="paint-order:markers fill stroke" />
         <path
            d="m64.026 294.83c0-2.601 2.0035-2.8257 3.8242-2.8257 1.8208 0 2.7693 0.22472 2.7693 2.8257 0 2.601-1.476 4.7095-3.2968 4.7095-1.8207 0-3.2968-2.1085-3.2968-4.7095z"
            style="paint-order:markers fill stroke" />
         <path
            d="m60.52 290.15c1.1717-2.3221 3.0616-1.6201 4.6872-0.79987 1.6255 0.82026 2.3711 1.4482 1.1994 3.7703-1.1718 2.3221-3.4394 3.5396-5.0649 2.7193-1.6255-0.82026-1.9934-3.3676-0.82162-5.6897z"
            style="paint-order:markers fill stroke" />
         <path
            d="m68.186 292.39c0-2.601 2.0035-2.8257 3.8242-2.8257 1.8208 0 2.7693 0.22472 2.7693 2.8257 0 2.601-1.476 4.7095-3.2968 4.7095-1.8207 0-3.2968-2.1085-3.2968-4.7095z"
            style="paint-order:markers fill stroke" />
      </g>
      <g transform="matrix(.41517 0 0 .41517 -8.2431 164.64)">
         <path
            d="m57.921 272.88c-0.35762 0.84597 1.47 1.7594 3.3455 2.6743-7.47 0.82588-2.262 8.2976-4.0356 11.751 4.7984-3.3466 12.124-5.844 19.526-5.886 5.8047 4.9699 5.9092 1.3137 13.728 7.4023 0.31673-2.3162 1.1045-5.0623-1.0773-8.7257-3.4655-1.9453-7.8652 0.17776-12.036 1.22 2.8327-2.3952 2.9031-7.7881 12.672-5.9751-1.9352-2.0589-3.3774-3.6105-6.9972-3.4228-2.305 0.11949-5.6186 2.8727-8.5781 4.2887l5.4029-4.4855c-0.71704-2.3871-1.4153-3.0489-4.817-2.5973-2.7034 1.4325-6.5612 0.64442-7.2225 3.9396-3.7124-3.9736-5.1627-1.9754-9.9111-0.18355z"
            fill="#90b556" />
         <path
            d="m77.338 270.92c-3.0443 1.0229-8.3305 0.80297-7.4672 5.6905-1.5182 0.5479-4.389-5.7934-7.5563-2.7256 8.3904 2.7145 5.1477 3.4313-1.5352 4.498-1.6864 1.531-0.83106 7.5499 1.8496 4.6191 2.1109-0.58443 5.0999-3.059 6.6914-1.3281 2.1936-3.7228 8.7523-0.0852 9.9746-5.166 1.7767-2.2091-2.7975 2.0056-4.0611 1.683-8.7733 3.6124 0.93218-5.5468 2.6256-7.2534l-0.23242-0.0195zm9.6113 10.021c-3.8656 0.25395-5.3043 1.3859-1 1.9707 1.9798 0.45883 5.3426 3.3681 3.4922-0.61914-0.12932-1.445-1.419-1.3523-2.4922-1.3516z"
            fill="#009100" stroke="#009100" stroke-width=".26458px" />
         <path
            d="m66.307 252.85c0.33201 3.3029 1.0415-0.99936 1.4227 1.4706 2.5774 16.702 5.6214 22.896 5.6214 22.896l-4.6388 1.695 0.17181-0.42375z"
            fill="#009100" />
      </g>
   </g>
</svg>